HIERARCHY
ROOT mixamorig:Hips
{
	OFFSET 0.000000 97.439201 0.000000
	CHANNELS 6 Xposition Yposition Zposition Zrotation Yrotation Xrotation 
	JOINT mixamorig:Spine
	{
		OFFSET 0.000000 10.246803 -1.182900
		CHANNELS 3 Zrotation Yrotation Xrotation
		JOINT mixamorig:Spine1
		{
			OFFSET 0.000000 11.954597 -1.380086
			CHANNELS 3 Zrotation Yrotation Xrotation
			JOINT mixamorig:Spine2
			{
				OFFSET 0.000000 13.662361 -1.577237
				CHANNELS 3 Zrotation Yrotation Xrotation
				JOINT mixamorig:Neck
				{
					OFFSET 0.000000 15.370239 -1.774399
					CHANNELS 3 Zrotation Yrotation Xrotation
					JOINT mixamorig:Head
					{
						OFFSET 0.000000 6.121704 2.117600
						CHANNELS 3 Zrotation Yrotation Xrotation
						JOINT mixamorig:HeadTop_End
						{
							OFFSET 0.000000 23.480103 8.122100
							CHANNELS 3 Zrotation Yrotation Xrotation
							End Site
							{
								OFFSET 0.000000 0.000000 0.000000
							}
						}
					}
				}
				JOINT mixamorig:LeftShoulder
				{
					OFFSET 6.584100 13.564301 -1.766640
					CHANNELS 3 Zrotation Yrotation Xrotation
					JOINT mixamorig:LeftArm
					{
						OFFSET 13.322093 -3.531372 0.015528
						CHANNELS 3 Zrotation Yrotation Xrotation
						JOINT mixamorig:LeftForeArm
						{
							OFFSET 25.861839 0.000000 0.000001
							CHANNELS 3 Zrotation Yrotation Xrotation
							JOINT mixamorig:LeftHand
							{
								OFFSET 24.066311 0.000000 0.000001
								CHANNELS 3 Zrotation Yrotation Xrotation
								JOINT mixamorig:LeftHandThumb1
								{
									OFFSET 3.138794 -1.265854 2.647181
									CHANNELS 3 Zrotation Yrotation Xrotation
									JOINT mixamorig:LeftHandThumb2
									{
										OFFSET 2.662651 -1.537277 1.537284
										CHANNELS 3 Zrotation Yrotation Xrotation
										JOINT mixamorig:LeftHandThumb3
										{
											OFFSET 2.570145 -1.483871 1.483872
											CHANNELS 3 Zrotation Yrotation Xrotation
											JOINT mixamorig:LeftHandThumb4
											{
												OFFSET 2.200981 -1.270737 1.270736
												CHANNELS 3 Zrotation Yrotation Xrotation
												End Site
												{
													OFFSET 0.000000 0.000000 0.000000
												}
											}
										}
									}
								}
								JOINT mixamorig:LeftHandIndex1
								{
									OFFSET 10.405411 -0.300232 2.648106
									CHANNELS 3 Zrotation Yrotation Xrotation
									JOINT mixamorig:LeftHandIndex2
									{
										OFFSET 3.184044 0.000000 0.000000
										CHANNELS 3 Zrotation Yrotation Xrotation
										JOINT mixamorig:LeftHandIndex3
										{
											OFFSET 2.887520 0.000000 0.000000
											CHANNELS 3 Zrotation Yrotation Xrotation
											JOINT mixamorig:LeftHandIndex4
											{
												OFFSET 2.475807 0.000000 0.000000
												CHANNELS 3 Zrotation Yrotation Xrotation
												End Site
												{
													OFFSET 0.000000 0.000000 0.000000
												}
											}
										}
									}
								}
								JOINT mixamorig:LeftHandMiddle1
								{
									OFFSET 10.112617 0.000000 0.000000
									CHANNELS 3 Zrotation Yrotation Xrotation
									JOINT mixamorig:LeftHandMiddle2
									{
										OFFSET 3.478561 0.000000 0.000000
										CHANNELS 3 Zrotation Yrotation Xrotation
										JOINT mixamorig:LeftHandMiddle3
										{
											OFFSET 3.196815 0.000000 0.000000
											CHANNELS 3 Zrotation Yrotation Xrotation
											JOINT mixamorig:LeftHandMiddle4
											{
												OFFSET 2.838127 0.000000 0.000000
												CHANNELS 3 Zrotation Yrotation Xrotation
												End Site
												{
													OFFSET 0.000000 0.000000 0.000000
												}
											}
										}
									}
								}
								JOINT mixamorig:LeftHandRing1
								{
									OFFSET 9.766037 0.002869 -2.231968
									CHANNELS 3 Zrotation Yrotation Xrotation
									JOINT mixamorig:LeftHandRing2
									{
										OFFSET 2.912598 0.000000 0.000000
										CHANNELS 3 Zrotation Yrotation Xrotation
										JOINT mixamorig:LeftHandRing3
										{
											OFFSET 2.743797 0.000000 0.000000
											CHANNELS 3 Zrotation Yrotation Xrotation
											JOINT mixamorig:LeftHandRing4
											{
												OFFSET 2.426300 0.000000 0.000000
												CHANNELS 3 Zrotation Yrotation Xrotation
												End Site
												{
													OFFSET 0.000000 0.000000 0.000000
												}
											}
										}
									}
								}
								JOINT mixamorig:LeftHandPinky1
								{
									OFFSET 8.462975 -0.296494 -4.344542
									CHANNELS 3 Zrotation Yrotation Xrotation
									JOINT mixamorig:LeftHandPinky2
									{
										OFFSET 2.761932 0.000000 0.000000
										CHANNELS 3 Zrotation Yrotation Xrotation
										JOINT mixamorig:LeftHandPinky3
										{
											OFFSET 2.226311 0.000000 0.000000
											CHANNELS 3 Zrotation Yrotation Xrotation
											JOINT mixamorig:LeftHandPinky4
											{
												OFFSET 2.001915 0.000000 0.000000
												CHANNELS 3 Zrotation Yrotation Xrotation
												End Site
												{
													OFFSET 0.000000 0.000000 0.000000
												}
											}
										}
									}
								}
							}
						}
					}
				}
				JOINT mixamorig:RightShoulder
				{
					OFFSET -6.584100 13.564331 -1.782145
					CHANNELS 3 Zrotation Yrotation Xrotation
					JOINT mixamorig:RightArm
					{
						OFFSET -13.322087 -3.531387 -0.015528
						CHANNELS 3 Zrotation Yrotation Xrotation
						JOINT mixamorig:RightForeArm
						{
							OFFSET -25.995886 0.000000 -0.000000
							CHANNELS 3 Zrotation Yrotation Xrotation
							JOINT mixamorig:RightHand
							{
								OFFSET -23.930798 0.000000 -0.000000
								CHANNELS 3 Zrotation Yrotation Xrotation
								JOINT mixamorig:RightHandThumb1
								{
									OFFSET -3.103348 -1.214722 2.665987
									CHANNELS 3 Zrotation Yrotation Xrotation
									JOINT mixamorig:RightHandThumb2
									{
										OFFSET -2.644638 -1.526886 1.526883
										CHANNELS 3 Zrotation Yrotation Xrotation
										JOINT mixamorig:RightHandThumb3
										{
											OFFSET -2.548042 -1.471115 1.471114
											CHANNELS 3 Zrotation Yrotation Xrotation
											JOINT mixamorig:RightHandThumb4
											{
												OFFSET -2.086876 -1.204865 1.204859
												CHANNELS 3 Zrotation Yrotation Xrotation
												End Site
												{
													OFFSET 0.000000 0.000000 0.000000
												}
											}
										}
									}
								}
								JOINT mixamorig:RightHandIndex1
								{
									OFFSET -9.891205 -0.413467 2.629802
									CHANNELS 3 Zrotation Yrotation Xrotation
									JOINT mixamorig:RightHandIndex2
									{
										OFFSET -3.265656 0.000000 0.000000
										CHANNELS 3 Zrotation Yrotation Xrotation
										JOINT mixamorig:RightHandIndex3
										{
											OFFSET -3.106102 0.000000 0.000000
											CHANNELS 3 Zrotation Yrotation Xrotation
											JOINT mixamorig:RightHandIndex4
											{
												OFFSET -2.514259 0.000000 0.000000
												CHANNELS 3 Zrotation Yrotation Xrotation
												End Site
												{
													OFFSET 0.000000 0.000000 0.000000
												}
											}
										}
									}
								}
								JOINT mixamorig:RightHandMiddle1
								{
									OFFSET -10.108925 0.000000 0.000000
									CHANNELS 3 Zrotation Yrotation Xrotation
									JOINT mixamorig:RightHandMiddle2
									{
										OFFSET -3.489250 0.000000 0.000000
										CHANNELS 3 Zrotation Yrotation Xrotation
										JOINT mixamorig:RightHandMiddle3
										{
											OFFSET -3.236908 0.000000 0.000000
											CHANNELS 3 Zrotation Yrotation Xrotation
											JOINT mixamorig:RightHandMiddle4
											{
												OFFSET -2.756126 0.000000 0.000000
												CHANNELS 3 Zrotation Yrotation Xrotation
												End Site
												{
													OFFSET 0.000000 0.000000 0.000000
												}
											}
										}
									}
								}
								JOINT mixamorig:RightHandRing1
								{
									OFFSET -9.832733 -0.175018 -2.119855
									CHANNELS 3 Zrotation Yrotation Xrotation
									JOINT mixamorig:RightHandRing2
									{
										OFFSET -2.832802 0.000000 0.000000
										CHANNELS 3 Zrotation Yrotation Xrotation
										JOINT mixamorig:RightHandRing3
										{
											OFFSET -2.766335 0.000000 0.000000
											CHANNELS 3 Zrotation Yrotation Xrotation
											JOINT mixamorig:RightHandRing4
											{
												OFFSET -2.344864 0.000000 0.000000
												CHANNELS 3 Zrotation Yrotation Xrotation
												End Site
												{
													OFFSET 0.000000 0.000000 0.000000
												}
											}
										}
									}
								}
								JOINT mixamorig:RightHandPinky1
								{
									OFFSET -8.564178 -0.350037 -4.300325
									CHANNELS 3 Zrotation Yrotation Xrotation
									JOINT mixamorig:RightHandPinky2
									{
										OFFSET -2.646233 0.000000 0.000000
										CHANNELS 3 Zrotation Yrotation Xrotation
										JOINT mixamorig:RightHandPinky3
										{
											OFFSET -2.261864 0.000000 0.000000
											CHANNELS 3 Zrotation Yrotation Xrotation
											JOINT mixamorig:RightHandPinky4
											{
												OFFSET -1.954506 0.000000 0.000000
												CHANNELS 3 Zrotation Yrotation Xrotation
												End Site
												{
													OFFSET 0.000000 0.000000 0.000000
												}
											}
										}
									}
								}
							}
						}
					}
				}
			}
		}
	}
	JOINT mixamorig:LeftUpLeg
	{
		OFFSET 7.983700 -5.694298 -0.735200
		CHANNELS 3 Zrotation Yrotation Xrotation
		JOINT mixamorig:LeftLeg
		{
			OFFSET 1.208505 -42.761528 -3.138802
			CHANNELS 3 Zrotation Yrotation Xrotation
			JOINT mixamorig:LeftFoot
			{
				OFFSET -1.208506 -38.163300 -2.010041
				CHANNELS 3 Zrotation Yrotation Xrotation
				JOINT mixamorig:LeftToeBase
				{
					OFFSET 1.841840 -10.410353 14.836088
					CHANNELS 3 Zrotation Yrotation Xrotation
					JOINT mixamorig:LeftToe_End
					{
						OFFSET 0.820596 -0.120798 6.988551
						CHANNELS 3 Zrotation Yrotation Xrotation
						End Site
						{
							OFFSET 0.000000 0.000000 0.000000
						}
					}
				}
			}
		}
	}
	JOINT mixamorig:RightUpLeg
	{
		OFFSET -7.983700 -5.694298 -0.831100
		CHANNELS 3 Zrotation Yrotation Xrotation
		JOINT mixamorig:RightLeg
		{
			OFFSET -1.208402 -42.761509 -2.372174
			CHANNELS 3 Zrotation Yrotation Xrotation
			JOINT mixamorig:RightFoot
			{
				OFFSET 1.208405 -38.162746 -2.730814
				CHANNELS 3 Zrotation Yrotation Xrotation
				JOINT mixamorig:RightToeBase
				{
					OFFSET -1.842189 -10.413905 14.893202
					CHANNELS 3 Zrotation Yrotation Xrotation
					JOINT mixamorig:RightToe_End
					{
						OFFSET -0.820738 -0.122444 6.961618
						CHANNELS 3 Zrotation Yrotation Xrotation
						End Site
						{
							OFFSET 0.000000 0.000000 0.000000
						}
					}
				}
			}
		}
	}
}
MOTION
Frames: 5
Frame Time: 0.016667
-30.173769 92.999023 -84.506111 -2.027753 33.885752 -4.834226 9.393330 6.503336 14.982372 2.353257 1.919012 3.067812 2.298829 1.872196 3.091630 0.278713 -3.052681 3.830288 11.513017 -30.997595 -19.663554 0.000000 0.000000 0.000000 -18.799960 -7.138932 2.912605 -64.721569 -4.494995 -5.525114 0.000009 -24.960873 -0.000003 2.249386 2.889082 4.081111 6.429207 4.893255 4.893878 9.924159 6.672634 16.419785 13.822152 -6.150885 -16.451054 -0.000002 -0.000003 -0.000002 -32.867432 -0.338086 -0.687588 -27.043567 2.667652 -0.641622 -8.143239 0.831638 -0.059187 0.000003 -0.000002 0.000001 -47.332717 4.313178 -3.573848 -26.944092 2.658577 -0.637002 -19.640289 1.972709 -0.341490 0.000000 0.000000 -0.000001 -55.140014 7.575082 -4.401785 -35.418752 3.398813 -1.085603 -29.413581 2.881113 -0.756358 -0.000001 -0.000001 0.000000 -62.657369 4.144551 -5.387353 -32.998672 3.194424 -0.946416 -36.508498 3.488874 -1.151065 -0.000002 0.000001 0.000001 23.447372 18.994799 6.762204 37.344371 18.920066 -4.724140 0.000008 20.447206 -0.000009 -7.422336 19.552245 -1.437942 1.659141 -1.630437 -1.242625 -12.036091 -19.343835 19.701855 -12.720664 -9.168255 -12.858147 0.000003 -0.000001 0.000001 34.080069 -0.956673 0.001041 53.463210 -3.744836 -1.886556 33.921838 -2.602932 -0.793999 0.000000 0.000000 -0.000001 43.761063 -2.228695 -2.833234 54.312197 -3.785429 -1.942317 41.855437 -3.111314 -1.190059 -0.000000 -0.000001 0.000003 49.099179 -1.431419 -3.295803 38.502224 -2.903211 -1.014099 51.324039 -3.638943 -1.748782 0.000001 -0.000001 0.000001 43.077642 -1.147074 -3.525953 52.113216 -3.678620 -1.799155 40.836885 -3.049192 -1.135333 -0.000000 -0.000001 0.000002 4.102497 5.730861 -36.048840 6.547075 4.844882 49.743465 -5.916327 9.600862 -10.107093 0.000025 -0.000003 -4.656909 0.000000 -0.000002 -0.000001 0.870442 -9.679744 -24.959694 0.114819 -11.146958 24.635835 -5.690116 -6.610883 3.921104 0.000001 0.000004 -2.170577 0.000000 -0.000001 0.000000 
-30.572969 92.910500 -85.549889 -2.108874 33.677117 -4.987139 9.568256 6.773732 14.898314 2.381653 1.996808 3.054026 2.324487 1.949682 3.078767 0.359601 -3.065910 3.794865 11.936930 -31.192886 -19.672742 0.000000 0.000000 -0.000001 -18.780887 -7.095282 2.904623 -64.850691 -2.227735 -8.727357 0.000029 -22.099191 -0.000010 2.971270 6.388438 1.077574 6.429202 4.893257 4.893875 9.924161 6.672636 16.419788 13.806222 -5.050426 -16.002419 -0.000006 -0.000009 -0.000003 -34.226954 -0.182878 -0.692435 -28.202826 2.772657 -0.696637 -9.051072 0.923597 -0.073097 -0.000002 -0.000001 0.000001 -48.867057 4.388263 -3.733707 -28.310526 2.782352 -0.701856 -20.798124 2.083908 -0.382467 -0.000002 -0.000001 0.000002 -56.806115 7.599116 -4.582386 -36.949896 3.525000 -1.178070 -30.779312 3.001870 -0.826443 0.000000 0.000000 0.000000 -64.388377 4.178429 -5.568077 -34.649966 3.334541 -1.040454 -38.038591 3.613159 -1.245846 0.000002 -0.000003 0.000001 23.344634 19.135229 6.787957 36.695699 20.283523 -4.637891 0.000001 21.672081 0.000004 -7.009997 19.976554 -1.396177 1.044243 -1.750232 -1.172667 -12.036087 -19.343826 19.701850 -12.711256 -8.109337 -13.271195 0.000003 -0.000001 -0.000003 32.471671 -0.835574 0.015924 51.849547 -3.665436 -1.782261 32.311747 -2.493300 -0.722403 0.000001 -0.000000 0.000003 41.977927 -2.146614 -2.681571 52.694623 -3.707398 -1.836606 40.497394 -3.028294 -1.117339 -0.000000 0.000001 -0.000001 47.170292 -1.350533 -3.126420 36.708584 -2.787757 -0.925043 49.712094 -3.555771 -1.647639 0.000001 0.000000 -0.000001 40.942415 -1.069550 -3.402526 50.221220 -3.582364 -1.679347 39.051146 -2.937958 -1.042072 0.000000 0.000000 -0.000003 4.874322 6.012677 -34.697643 6.487917 4.639163 50.581490 -5.764165 9.860151 -10.400527 0.000025 0.000004 -4.650592 0.000000 0.000001 0.000000 0.914195 -9.614335 -25.002549 0.397163 -11.144081 23.247565 -6.118173 -6.450292 5.427009 0.000002 -0.000005 -2.176591 0.000000 -0.000001 0.000000 
-30.988621 92.830437 -86.630348 -2.180051 33.577424 -5.019850 9.658473 6.940887 14.763980 2.407766 2.041423 3.023178 2.350443 1.993540 3.048411 0.441730 -3.067724 3.735966 12.495317 -31.225928 -19.792784 0.000000 0.000000 0.000000 -18.581554 -7.276610 2.925354 -64.914438 0.335068 -11.259427 0.000006 -21.363980 -0.000008 2.854809 11.490802 -1.341192 6.429203 4.893258 4.893872 9.924163 6.672633 16.419788 13.799512 -3.934988 -15.551513 -0.000003 -0.000009 -0.000002 -35.673424 -0.021065 -0.699817 -29.470832 2.886209 -0.759228 -10.088940 1.028441 -0.090786 0.000001 0.000002 0.000001 -50.467139 4.461953 -3.902026 -29.764150 2.912286 -0.774061 -22.064508 2.204534 -0.429853 0.000000 0.000000 -0.000001 -58.516287 7.618345 -4.768872 -38.546733 3.653888 -1.278044 -32.232161 3.128452 -0.904142 -0.000001 0.000002 0.000001 -66.141351 4.206840 -5.751491 -36.345250 3.475450 -1.141151 -39.634293 3.740015 -1.348179 0.000002 0.000002 0.000003 23.276360 19.055334 6.749971 35.998011 21.841116 -4.337563 0.000014 22.916227 -0.000011 -6.303826 20.339589 -1.269823 0.391260 -1.878291 -1.092736 -12.036090 -19.343830 19.701857 -12.709428 -6.987985 -13.711493 0.000003 0.000003 -0.000002 30.766616 -0.703320 0.029342 50.138790 -3.578075 -1.674193 30.604742 -2.374892 -0.649900 0.000000 -0.000001 -0.000001 40.136859 -2.056938 -2.526985 50.979746 -3.621426 -1.726999 39.003444 -2.934980 -1.039618 -0.000001 0.000000 0.000002 45.221877 -1.263044 -2.957097 34.856750 -2.665643 -0.836941 48.003148 -3.464518 -1.543014 0.000000 0.000000 -0.000001 38.829282 -0.986233 -3.283226 48.310099 -3.481156 -1.561600 37.207421 -2.820138 -0.949464 0.000000 0.000000 -0.000002 5.577945 6.263875 -33.298582 6.479125 4.564137 50.953813 -5.581512 9.969375 -10.525748 0.000024 -0.000012 -4.720504 0.000000 0.000001 0.000000 0.936614 -9.546434 -25.027564 0.752133 -11.134437 21.511194 -6.587617 -6.380883 7.145715 -0.000001 -0.000001 -2.181489 0.000000 -0.000001 0.000000 
-31.423281 92.761459 -87.763107 -2.229777 33.583807 -5.007192 9.631457 6.959184 14.588382 2.428888 2.038049 2.982510 2.372754 1.988782 3.007857 0.523506 -3.064261 3.690393 13.095280 -31.056589 -19.987134 0.000000 0.000000 0.000000 -18.241378 -7.639660 2.967443 -64.787262 3.324454 -12.805431 -0.000006 -21.307270 0.000002 1.483711 16.220379 -3.049524 6.429202 4.893257 4.893878 9.924159 6.672634 16.419782 13.802277 -2.811529 -15.100850 -0.000001 -0.000006 0.000000 -37.196125 0.145492 -0.709926 -30.836832 3.006936 -0.829462 -11.246027 1.144918 -0.112727 -0.000002 0.000004 -0.000000 -52.122124 4.533240 -4.077674 -31.294158 3.046946 -0.853598 -23.428688 2.333254 -0.483862 0.000000 0.000000 -0.000001 -60.259530 7.632264 -4.959920 -40.198388 3.784169 -1.385174 -33.761434 3.259465 -0.989345 0.000001 0.000003 0.000002 -67.905402 4.229438 -5.936279 -38.073681 3.616013 -1.248053 -41.284837 3.868119 -1.457685 -0.000003 0.000001 -0.000001 23.268572 18.769854 6.657905 35.282343 23.586164 -3.814316 -0.000011 24.170714 -0.000002 -5.294729 20.654578 -1.040658 -0.292483 -2.013244 -1.002823 -12.036094 -19.343832 19.701858 -12.716432 -5.817213 -14.174768 -0.000001 -0.000002 0.000001 28.984365 -0.560908 0.040657 48.350492 -3.483346 -1.564049 28.820332 -2.248855 -0.577911 -0.000001 0.000001 -0.000002 38.257376 -1.960279 -2.371412 49.187105 -3.528082 -1.615201 37.393124 -2.832165 -0.958613 0.000000 0.000000 0.000005 43.273867 -1.169810 -2.789743 32.966215 -2.538108 -0.751125 46.216730 -3.365851 -1.436562 0.000000 0.000000 -0.000005 36.760131 -0.898392 -3.169320 46.399405 -3.376105 -1.447313 35.325213 -2.696796 -0.858875 0.000001 0.000000 -0.000003 6.208330 6.487928 -31.799719 6.574720 4.652548 50.899048 -5.271436 9.893989 -10.554029 0.000028 -0.000001 -4.998955 0.000000 0.000000 0.000000 0.900700 -9.463612 -24.898784 1.205800 -11.111049 19.304850 -7.117864 -6.406511 9.149870 -0.000001 0.000001 -2.185146 0.000000 -0.000001 0.000000 
-31.876240 92.688057 -88.944656 -2.275423 33.662375 -4.988311 9.485733 6.824934 14.378299 2.442632 1.987118 2.936815 2.385516 1.936808 2.961732 0.617366 -3.055402 3.665652 13.663595 -30.676562 -20.184260 0.000001 -0.000001 -0.000001 -17.797072 -8.149690 3.024579 -64.426617 6.761841 -13.244857 -0.000017 -21.250641 0.000001 -1.188396 19.453007 -3.760253 6.429200 4.893261 4.893871 9.924160 6.672635 16.419785 13.814468 -1.687093 -14.652894 0.000002 0.000001 -0.000005 -38.784381 0.315035 -0.722957 -32.289969 3.133437 -0.907288 -12.511496 1.271758 -0.139424 -0.000001 -0.000000 -0.000002 -53.821078 4.601073 -4.259524 -32.889767 3.185083 -0.940337 -24.879876 2.468687 -0.544654 0.000001 0.000001 -0.000001 -62.024776 7.640456 -5.154211 -41.894106 3.914630 -1.499037 -35.356239 3.393609 -1.081894 -0.000000 0.000001 -0.000001 -69.669588 4.246018 -6.121133 -39.824422 3.754945 -1.360590 -42.979356 3.996288 -1.573904 -0.000002 -0.000003 0.000002 23.368991 18.314562 6.531311 34.546955 25.472951 -3.126522 -0.000006 25.426721 0.000009 -4.044058 20.932118 -0.750241 -0.999648 -2.153556 -0.903131 -12.036093 -19.343832 19.701858 -12.733234 -4.610125 -14.656701 -0.000001 -0.000002 0.000000 27.144425 -0.409512 0.049250 46.504152 -3.381953 -1.453481 26.977948 -2.116414 -0.507721 -0.000001 -0.000001 0.000002 36.358906 -1.857514 -2.216751 47.336295 -3.428089 -1.502909 35.685915 -2.720684 -0.875908 0.000000 0.000000 -0.000001 41.346160 -1.072014 -2.626215 31.056553 -2.406428 -0.668729 44.372351 -3.260521 -1.329973 0.000000 0.000000 0.000002 34.756743 -0.807578 -3.062010 44.508627 -3.268433 -1.337745 33.423988 -2.569232 -0.771511 -0.000001 0.000000 0.000002 6.793328 6.693080 -30.214467 6.768632 4.883269 50.523975 -4.931441 9.669802 -10.643885 0.000026 0.000029 -5.422499 0.000001 0.000000 0.000000 0.821826 -9.363321 -24.559164 1.767226 -11.061520 16.576143 -7.727718 -6.490657 11.465132 -0.000001 -0.000003 -2.187414 0.000000 0.000000 0.000000 
